<svg xmlns="http://www.w3.org/2000/svg" viewBox="0 0 1200 1500" preserveAspectRatio="xMidYMid slice">
  <defs>
    <linearGradient id="s3sky" x1="0" y1="0" x2="0" y2="1">
      <stop offset="0" stop-color="#4338ca"/>
      <stop offset="0.4" stop-color="#1d4ed8"/>
      <stop offset="0.72" stop-color="#172554"/>
      <stop offset="1" stop-color="#0b1020"/>
    </linearGradient>
    <radialGradient id="s3sun" cx="50%" cy="60%" r="42%">
      <stop offset="0" stop-color="#93c5fd" stop-opacity="0.95"/>
      <stop offset="0.5" stop-color="#60a5fa" stop-opacity="0.4"/>
      <stop offset="1" stop-color="#3b82f6" stop-opacity="0"/>
    </radialGradient>
  </defs>
  <rect width="1200" height="1500" fill="url(#s3sky)"/>
  <circle cx="600" cy="900" r="560" fill="url(#s3sun)"/>
  <g fill="#eaf2ff">
    <circle cx="150" cy="160" r="3" fill-opacity="0.85"/><circle cx="420" cy="120" r="2.5" fill-opacity="0.7"/>
    <circle cx="760" cy="200" r="3" fill-opacity="0.7"/><circle cx="1010" cy="140" r="2.5" fill-opacity="0.85"/>
    <circle cx="980" cy="320" r="2.5" fill-opacity="0.6"/><circle cx="260" cy="300" r="2.5" fill-opacity="0.6"/>
  </g>
  <!-- refinery silhouette -->
  <g fill="#0a1024" stroke="#7dd3fc" stroke-opacity="0.5">
    <rect x="180" y="700" width="72" height="380"/>
    <rect x="166" y="674" width="100" height="30" rx="8"/>
    <rect x="300" y="600" width="60" height="480"/>
    <rect x="288" y="576" width="84" height="28" rx="8"/>
    <rect x="700" y="640" width="84" height="440"/>
    <rect x="686" y="614" width="112" height="30" rx="8"/>
    <rect x="900" y="740" width="62" height="340"/>
    <circle cx="520" cy="950" r="84"/>
    <circle cx="1030" cy="970" r="58"/>
    <rect x="0" y="1080" width="1200" height="16"/>
  </g>
  <!-- flare glow -->
  <g>
    <circle cx="340" cy="556" r="12" fill="#fde047"/>
    <circle cx="340" cy="556" r="30" fill="#f59e0b" fill-opacity="0.45"/>
  </g>
  <g fill="#93c5fd">
    <circle cx="216" cy="730" r="5"/><circle cx="330" cy="640" r="5"/>
    <circle cx="742" cy="680" r="5"/><circle cx="931" cy="780" r="5"/>
  </g>
</svg>
