<svg xmlns="http://www.w3.org/2000/svg" viewBox="0 0 1200 1500" preserveAspectRatio="xMidYMid slice">
  <defs>
    <linearGradient id="s1bg" x1="0" y1="0" x2="1" y2="1">
      <stop offset="0" stop-color="#1e3a8a"/>
      <stop offset="0.5" stop-color="#1d4ed8"/>
      <stop offset="1" stop-color="#0b1437"/>
    </linearGradient>
    <radialGradient id="s1glowA" cx="28%" cy="22%" r="55%">
      <stop offset="0" stop-color="#60a5fa" stop-opacity="0.9"/>
      <stop offset="1" stop-color="#60a5fa" stop-opacity="0"/>
    </radialGradient>
    <radialGradient id="s1glowB" cx="82%" cy="72%" r="55%">
      <stop offset="0" stop-color="#22d3ee" stop-opacity="0.8"/>
      <stop offset="1" stop-color="#22d3ee" stop-opacity="0"/>
    </radialGradient>
    <radialGradient id="s1glowC" cx="62%" cy="42%" r="60%">
      <stop offset="0" stop-color="#a78bfa" stop-opacity="0.7"/>
      <stop offset="1" stop-color="#a78bfa" stop-opacity="0"/>
    </radialGradient>
  </defs>
  <rect width="1200" height="1500" fill="url(#s1bg)"/>
  <rect width="1200" height="1500" fill="url(#s1glowA)"/>
  <rect width="1200" height="1500" fill="url(#s1glowB)"/>
  <rect width="1200" height="1500" fill="url(#s1glowC)"/>
  <g stroke="#dbe6ff" stroke-opacity="0.12">
    <line x1="0" y1="250" x2="1200" y2="250"/><line x1="0" y1="500" x2="1200" y2="500"/>
    <line x1="0" y1="750" x2="1200" y2="750"/><line x1="0" y1="1000" x2="1200" y2="1000"/>
    <line x1="0" y1="1250" x2="1200" y2="1250"/>
    <line x1="240" y1="0" x2="240" y2="1500"/><line x1="480" y1="0" x2="480" y2="1500"/>
    <line x1="720" y1="0" x2="720" y2="1500"/><line x1="960" y1="0" x2="960" y2="1500"/>
  </g>
  <!-- floating glass cards: document → answer -->
  <g transform="translate(240 480) rotate(-9)">
    <rect width="380" height="470" rx="28" fill="#0e1730" fill-opacity="0.82" stroke="#93b4ff" stroke-opacity="0.55"/>
    <rect x="38" y="46" width="210" height="24" rx="12" fill="#bcd0ff" fill-opacity="0.85"/>
    <rect x="38" y="96" width="300" height="13" rx="6" fill="#cbd5ff" fill-opacity="0.4"/>
    <rect x="38" y="124" width="300" height="13" rx="6" fill="#cbd5ff" fill-opacity="0.4"/>
    <rect x="38" y="152" width="230" height="13" rx="6" fill="#cbd5ff" fill-opacity="0.4"/>
    <rect x="38" y="220" width="300" height="128" rx="14" fill="#3b82f6" fill-opacity="0.3" stroke="#60a5fa" stroke-opacity="0.5"/>
    <rect x="38" y="378" width="168" height="42" rx="21" fill="#3b82f6"/>
  </g>
  <g transform="translate(680 620) rotate(7)">
    <rect width="330" height="310" rx="26" fill="#0c1a2e" fill-opacity="0.82" stroke="#5ee9ff" stroke-opacity="0.55"/>
    <circle cx="60" cy="66" r="22" fill="#22d3ee"/>
    <rect x="96" y="52" width="186" height="15" rx="7" fill="#c8f6ff" fill-opacity="0.7"/>
    <rect x="96" y="80" width="124" height="13" rx="6" fill="#c8f6ff" fill-opacity="0.45"/>
    <rect x="38" y="136" width="254" height="13" rx="6" fill="#cbd5ff" fill-opacity="0.35"/>
    <rect x="38" y="164" width="254" height="13" rx="6" fill="#cbd5ff" fill-opacity="0.35"/>
    <rect x="38" y="192" width="186" height="13" rx="6" fill="#cbd5ff" fill-opacity="0.35"/>
    <rect x="38" y="240" width="228" height="36" rx="10" fill="#22d3ee" fill-opacity="0.32" stroke="#5ee9ff" stroke-opacity="0.5"/>
  </g>
  <g fill="#ffffff">
    <circle cx="160" cy="240" r="5" fill-opacity="0.85"/><circle cx="980" cy="320" r="4" fill-opacity="0.7"/>
    <circle cx="1060" cy="1080" r="5" fill-opacity="0.7"/><circle cx="300" cy="1200" r="4" fill-opacity="0.7"/>
    <circle cx="540" cy="200" r="3" fill-opacity="0.6"/>
  </g>
</svg>
